HIERARCHY
ROOT Hips
{
 OFFSET 0.000000 0.000000 0.000000
 CHANNELS 6 Xposition Yposition Zposition Yrotation Xrotation Zrotation
 JOINT Chest
 {
  OFFSET 0.000000 9.585900 0.002600
  CHANNELS 3 Yrotation Xrotation Zrotation
  JOINT Chest2
  {
   OFFSET 0.000000 9.601200 -0.005300
   CHANNELS 3 Yrotation Xrotation Zrotation
   JOINT Chest3
   {
    OFFSET 0.000000 9.561800 0.000000
    CHANNELS 3 Yrotation Xrotation Zrotation
    JOINT Chest4
    {
     OFFSET 0.000000 9.552100 0.000000
     CHANNELS 3 Yrotation Xrotation Zrotation
     JOINT Neck
     {
      OFFSET 0.000000 14.453000 0.000000
      CHANNELS 3 Yrotation Xrotation Zrotation
      JOINT Head
      {
       OFFSET 0.000000 8.936500 -0.011300
       CHANNELS 3 Yrotation Xrotation Zrotation
       End Site
       {
        OFFSET 0.000000 17.073600 -0.006000
       }
      }
     }
     JOINT RightCollar
     {
      OFFSET -2.921100 9.558500 0.000000
      CHANNELS 3 Yrotation Xrotation Zrotation
      JOINT RightShoulder
      {
       OFFSET -13.519700 0.000000 0.000000
       CHANNELS 3 Yrotation Xrotation Zrotation
       JOINT RightElbow
       {
        OFFSET 0.000000 -29.696600 0.000000
        CHANNELS 3 Yrotation Xrotation Zrotation
        JOINT RightWrist
        {
         OFFSET 0.000000 -24.004700 0.000000
         CHANNELS 3 Yrotation Xrotation Zrotation
         End Site
         {
          OFFSET 0.000000 -17.728500 0.000000
         }
        }
       }
      }
     }
     JOINT LeftCollar
     {
      OFFSET 2.921100 9.558500 0.000000
      CHANNELS 3 Yrotation Xrotation Zrotation
      JOINT LeftShoulder
      {
       OFFSET 13.519700 0.000000 0.000000
       CHANNELS 3 Yrotation Xrotation Zrotation
       JOINT LeftElbow
       {
        OFFSET 0.000000 -29.696600 0.000000
        CHANNELS 3 Yrotation Xrotation Zrotation
        JOINT LeftWrist
        {
         OFFSET 0.000000 -24.004700 0.000000
         CHANNELS 3 Yrotation Xrotation Zrotation
         End Site
         {
          OFFSET 0.000000 -17.728500 0.000000
         }
        }
       }
      }
     }
    }
   }
  }
 }
 JOINT RightHip
 {
  OFFSET -7.771700 -0.012900 -0.001300
  CHANNELS 3 Yrotation Xrotation Zrotation
  JOINT RightKnee
  {
   OFFSET 0.000000 -40.869800 0.001200
   CHANNELS 3 Yrotation Xrotation Zrotation
   JOINT RightAnkle
   {
    OFFSET 0.000000 -39.717900 0.002100
    CHANNELS 3 Yrotation Xrotation Zrotation
    JOINT RightToe
    {
     OFFSET 0.000000 -4.965400 11.033500
     CHANNELS 3 Yrotation Xrotation Zrotation
     End Site
     {
      OFFSET 0.000000 -1.423100 5.872300
     }
    }
   }
  }
 }
 JOINT LeftHip
 {
  OFFSET 7.771700 -0.012900 -0.001300
  CHANNELS 3 Yrotation Xrotation Zrotation
  JOINT LeftKnee
  {
   OFFSET 0.000000 -40.869800 0.001200
   CHANNELS 3 Yrotation Xrotation Zrotation
   JOINT LeftAnkle
   {
    OFFSET 0.000000 -39.717900 0.002100
    CHANNELS 3 Yrotation Xrotation Zrotation
    JOINT LeftToe
    {
     OFFSET 0.000000 -4.965400 11.033500
     CHANNELS 3 Yrotation Xrotation Zrotation
     End Site
     {
      OFFSET 0.000000 -1.423100 5.872300
     }
    }
   }
  }
 }
}
MOTION
Frames: 7
Frame Time: 0.008333
0.000000 85.388000 0.000000 0.000000 -5.767877 0.000000 0.000000 11.653817 0.000000 0.000000 -5.885947 0.000000 0.000000 -0.000000 0.000000 0.000000 -0.000000 0.000000 0.000000 12.528835 0.000000 0.000000 0.711642 0.000000 0.000000 -0.000000 0.000000 0.000000 0.000000 -90.000000 0.000000 -2.309062 0.000000 0.000000 2.309062 0.000000 0.000000 -0.000000 0.000000 0.000000 -0.000000 90.000000 0.000000 -2.309062 0.000000 0.000000 2.309062 0.000000 0.000000 8.520406 0.000000 0.000000 1.905762 0.000000 -0.000000 -4.658285 0.000000 0.000000 -0.000000 0.000000 0.000000 8.520406 0.000000 0.000000 1.905762 0.000000 -0.000000 -4.658285 0.000000 0.000000 -0.000000 0.000000
-206.037137 57.531655 -67.556745 156.862704 -10.352961 0.297539 3.101461 7.291847 3.307981 0.124206 0.367176 0.124576 0.217192 0.640460 0.217809 2.518131 6.954786 2.525077 -3.389163 16.481103 0.492706 -6.457660 -5.091265 2.097724 5.825557 3.259921 -2.400419 9.198066 -27.989126 -34.396716 -78.025968 -66.002000 119.197903 -2.504991 -0.054900 -1.884392 -6.429256 1.803487 1.347295 19.402894 -21.286314 31.056184 69.228212 -58.241885 -123.750760 -3.800132 1.112957 -14.995509 -12.543189 -61.689646 7.732600 -32.647057 71.990037 -33.434478 -3.310375 -6.428577 -1.439012 -0.364492 0.672086 -0.126888 2.066493 -64.224989 17.735757 43.699672 66.325498 37.340553 -17.741986 -11.735770 2.705515 -0.069014 -0.960319 -0.064034
-206.019289 57.536014 -67.567153 156.786194 -10.345882 0.351520 3.056377 7.240498 3.284243 0.121185 0.360671 0.123770 0.211967 0.629331 0.216609 2.480958 6.895505 2.529696 -3.392472 16.495830 0.503927 -6.467105 -5.063072 2.118813 5.843043 3.386675 -2.238509 9.197990 -28.095168 -33.881461 -77.848841 -65.922303 119.018923 -2.560038 -0.058205 -1.858063 -6.294057 2.095431 1.263746 20.040773 -21.210797 30.397075 69.012057 -58.008545 -123.746704 -3.716486 1.036589 -15.102747 -12.410137 -61.712829 7.676031 -32.678173 72.007583 -33.474812 -3.312825 -6.427283 -1.448002 -0.377490 0.661234 -0.127985 2.182293 -64.211319 17.692359 43.715372 66.340443 37.350347 -17.737821 -11.720587 2.698254 -0.064573 -0.954894 -0.065531
-205.996266 57.541297 -67.578615 156.693834 -10.349242 0.401444 3.037411 7.201555 3.264332 0.118444 0.354512 0.122886 0.207320 0.618821 0.215146 2.448273 6.839133 2.530850 -3.397405 16.512980 0.517153 -6.480056 -5.030183 2.144029 5.846607 3.518483 -2.079019 9.192514 -28.185464 -33.344054 -77.613246 -65.848249 118.783571 -2.602666 -0.049867 -1.835492 -6.178355 2.397986 1.181655 20.643401 -21.117398 29.765407 68.700042 -57.758386 -123.665018 -3.626644 0.961766 -15.202277 -12.269639 -61.723879 7.629341 -32.714903 72.024104 -33.518350 -3.307816 -6.421987 -1.454082 -0.394801 0.645932 -0.134596 2.255056 -64.168070 17.713194 43.710284 66.357349 37.322716 -17.746722 -11.739067 2.681576 -0.045456 -0.923072 -0.061580
-205.969203 57.547162 -67.590001 156.579577 -10.362468 0.446978 3.048307 7.174981 3.250616 0.163250 0.374283 0.111709 0.155991 0.583129 0.223786 2.419079 6.785436 2.528597 -3.402469 16.532735 0.532060 -6.493781 -4.992391 2.172339 5.838109 3.651744 -1.923095 9.181630 -28.256371 -32.784476 -77.322487 -65.783241 118.502718 -2.630267 -0.025004 -1.813642 -6.078698 2.705389 1.098799 21.202788 -21.001938 29.162128 68.325461 -57.501160 -123.526263 -3.537792 0.891734 -15.305894 -12.124955 -61.727862 7.611523 -32.785643 72.034508 -33.601122 -3.312023 -6.396910 -1.456065 -0.399467 0.614310 -0.142560 2.216468 -64.085072 17.869187 43.713158 66.378052 37.252007 -17.784256 -11.798011 2.652537 0.003118 -0.858845 -0.044968
-205.943686 57.552007 -67.594793 156.490399 -10.343651 0.489809 3.039670 7.119886 3.231830 0.203226 0.391135 0.102386 0.109946 0.551117 0.230079 2.392068 6.734030 2.522638 -3.405600 16.555541 0.547673 -6.504009 -4.949018 2.201135 5.824373 3.782068 -1.772586 9.165452 -28.303249 -32.201900 -76.981880 -65.733076 118.172049 -2.640980 0.015277 -1.783958 -5.991225 3.014320 1.017474 21.709425 -20.856127 28.578577 67.926803 -57.249541 -123.345657 -3.460998 0.836435 -15.427256 -12.014662 -61.761219 7.605055 -32.857054 72.035342 -33.684043 -3.307534 -6.373804 -1.457582 -0.406773 0.588994 -0.147056 2.249118 -64.070678 17.917780 43.718197 66.396694 37.236589 -17.773928 -11.803317 2.630131 0.005920 -0.846752 -0.043045
-205.918701 57.556562 -67.597704 156.415170 -10.326862 0.533530 3.021700 7.070585 3.209570 0.134096 0.349226 0.114704 0.173147 0.578872 0.213911 2.367185 6.685126 2.514235 -3.406265 16.581461 0.561960 -6.509017 -4.900026 2.226328 5.810821 3.903874 -1.631313 9.143541 -28.317349 -31.595651 -76.607385 -65.703936 117.796653 -2.637729 0.063166 -1.735198 -5.915102 3.322045 0.937161 22.157172 -20.674443 28.005613 67.530462 -57.020261 -123.131872 -3.404660 0.796960 -15.576321 -11.912707 -61.793484 7.593980 -32.897094 72.044871 -33.738728 -3.316700 -6.355383 -1.463287 -0.413086 0.566806 -0.146823 2.277753 -64.055691 17.953700 43.707283 66.413556 37.210331 -17.769742 -11.803953 2.611590 0.023149 -0.851466 -0.050485
